<svg xmlns="http://www.w3.org/2000/svg" width="256" height="256" viewBox="0 0 100 100"><rect width="100" height="100" rx="20" fill="#5fb7a7"></rect><path d="M34.62 74.48L34.62 74.48Q33.74 75.18 33.56 76.28Q33.39 77.38 33.13 78.43Q32.86 79.49 32.20 80.23Q31.54 80.98 29.87 80.89L29.87 80.89Q29.52 81.33 29.74 81.42Q29.96 81.51 30.14 82.21L30.14 82.21Q28.91 82.04 28.38 82.39Q27.85 82.74 27.06 82.92L27.06 82.92Q25.04 82.30 23.68 80.67Q22.31 79.05 21.30 77.11Q20.29 75.18 19.55 73.16Q18.80 71.14 18.01 69.64L18.01 69.64Q18.01 69.29 18.32 69.34Q18.62 69.38 18.89 69.38L18.89 69.38Q18.45 68.50 18.23 67.40Q18.01 66.30 17.39 65.60L17.39 65.60Q19.94 60.15 22.84 54.22Q25.74 48.29 28.69 42.18Q31.63 36.07 34.58 29.87Q37.52 23.68 40.24 17.70L40.24 17.70Q42.71 18.58 45.03 19.77Q47.36 20.95 49.30 22.53Q51.23 24.12 52.59 26.18Q53.96 28.25 54.39 30.88L54.39 30.88Q54.22 31.41 53.96 31.24Q53.69 31.06 53.52 31.41L53.52 31.41Q53.96 31.94 54.00 32.16Q54.04 32.38 53.96 32.60Q53.87 32.82 53.87 33.17Q53.87 33.52 54.31 34.14L54.31 34.14Q53.87 34.05 53.69 34.27Q53.52 34.49 53.08 34.31L53.08 34.31Q53.52 35.54 53.34 36.25Q53.16 36.95 52.81 37.52Q52.46 38.09 52.24 38.75Q52.02 39.41 52.37 40.55L52.37 40.55Q52.02 40.55 51.89 40.68Q51.76 40.82 51.67 40.99Q51.58 41.17 51.45 41.30Q51.32 41.43 50.97 41.34L50.97 41.34Q51.23 43.63 51.14 45.96Q51.05 48.29 50.97 50.70Q50.88 53.12 50.97 55.67Q51.05 58.22 51.67 60.94L51.67 60.94Q55.45 58.75 57.78 55.23Q60.11 51.71 61.47 47.41Q62.83 43.10 63.58 38.18Q64.33 33.26 65.12 28.16L65.12 28.16Q66.08 27.19 66.66 25.79Q67.23 24.38 67.62 22.89Q68.02 21.39 68.41 19.85Q68.81 18.32 69.51 17.08L69.51 17.08Q71.09 17.26 72.19 18.01Q73.29 18.75 74.26 19.68Q75.22 20.60 76.28 21.39Q77.33 22.18 78.92 22.45L78.92 22.45Q80.15 24.20 81.20 25.83Q82.26 27.46 82.61 29.48L82.61 29.48Q82.08 30.36 81.82 31.41Q81.55 32.47 81.25 33.52Q80.94 34.58 80.41 35.45Q79.88 36.33 78.92 36.95L78.92 36.95Q78.65 39.58 78.13 41.87Q77.60 44.16 77.16 46.35Q76.72 48.55 76.37 50.92Q76.02 53.30 76.10 56.11L76.10 56.11Q75.31 58.66 74.35 61.34Q73.38 64.02 72.94 66.30L72.94 66.30Q71.27 67.62 70.30 69.56Q69.34 71.49 68.28 73.42L68.28 73.42Q67.84 73.77 67.75 73.55Q67.67 73.33 66.96 73.25L66.96 73.25Q67.05 74.04 66.66 74.26Q66.26 74.48 66.70 75.53L66.70 75.53Q65.21 76.24 64.06 77.38Q62.92 78.52 61.56 79.49Q60.20 80.45 58.39 80.76Q56.59 81.07 53.69 80.01L53.69 80.01Q49.38 76.85 45.96 72.72Q42.53 68.59 40.51 62.96L40.51 62.96Q39.63 63.23 39.19 64.11Q38.75 64.99 38.40 65.95Q38.05 66.92 37.70 67.71Q37.34 68.50 36.64 68.50L36.64 68.50Q36.46 69.29 35.98 69.95Q35.50 70.61 35.06 71.27Q34.62 71.93 34.40 72.72Q34.18 73.51 34.62 74.48Z" fill="#ebdccf"></path></svg>